<mxfile host="app.diagrams.net" modified="2023-04-15T16:04:14.210Z" agent="Mozilla/5.0 (Windows NT 10.0; Win64; x64) AppleWebKit/537.36 (KHTML, like Gecko) Chrome/112.0.0.0 Safari/537.36" etag="BwAPzkbFvZlE7Vxt3G2L" version="21.1.7" type="github">
  <diagram name="Pagina-1" id="6JUquj071dppgk3kZcf5">
    <mxGraphModel dx="969" dy="551" grid="1" gridSize="10" guides="1" tooltips="1" connect="1" arrows="1" fold="1" page="1" pageScale="1" pageWidth="827" pageHeight="1169" math="0" shadow="0">
      <root>
        <mxCell id="0" />
        <mxCell id="1" parent="0" />
        <mxCell id="U18qOftS7bFx01JsZrya-1" value="" style="image;html=1;image=img/lib/clip_art/networking/Router_Icon_128x128.png" vertex="1" parent="1">
          <mxGeometry x="430" y="223" width="80" height="80" as="geometry" />
        </mxCell>
        <mxCell id="U18qOftS7bFx01JsZrya-3" value="" style="image;aspect=fixed;perimeter=ellipsePerimeter;html=1;align=center;shadow=0;dashed=0;spacingTop=3;image=img/lib/active_directory/switch.svg;" vertex="1" parent="1">
          <mxGeometry x="445" y="72" width="50" height="50" as="geometry" />
        </mxCell>
        <mxCell id="U18qOftS7bFx01JsZrya-4" value="" style="image;aspect=fixed;perimeter=ellipsePerimeter;html=1;align=center;shadow=0;dashed=0;spacingTop=3;image=img/lib/active_directory/switch.svg;" vertex="1" parent="1">
          <mxGeometry x="445" y="383" width="50" height="50" as="geometry" />
        </mxCell>
        <mxCell id="U18qOftS7bFx01JsZrya-5" value="" style="image;aspect=fixed;perimeter=ellipsePerimeter;html=1;align=center;shadow=0;dashed=0;spacingTop=3;image=img/lib/active_directory/switch.svg;" vertex="1" parent="1">
          <mxGeometry x="270" y="238" width="50" height="50" as="geometry" />
        </mxCell>
        <mxCell id="U18qOftS7bFx01JsZrya-7" value="" style="outlineConnect=0;dashed=0;verticalLabelPosition=bottom;verticalAlign=top;align=center;html=1;shape=mxgraph.aws3.internet_2;fillColor=#D2D3D3;gradientColor=none;" vertex="1" parent="1">
          <mxGeometry x="590" y="75" width="60" height="44" as="geometry" />
        </mxCell>
        <mxCell id="U18qOftS7bFx01JsZrya-8" value="" style="endArrow=none;html=1;rounded=0;entryX=0;entryY=0.5;entryDx=0;entryDy=0;" edge="1" parent="1" source="U18qOftS7bFx01JsZrya-5" target="U18qOftS7bFx01JsZrya-1">
          <mxGeometry width="50" height="50" relative="1" as="geometry">
            <mxPoint x="450" y="293" as="sourcePoint" />
            <mxPoint x="500" y="243" as="targetPoint" />
          </mxGeometry>
        </mxCell>
        <mxCell id="U18qOftS7bFx01JsZrya-9" value="" style="endArrow=none;html=1;rounded=0;" edge="1" parent="1" source="U18qOftS7bFx01JsZrya-1" target="U18qOftS7bFx01JsZrya-3">
          <mxGeometry width="50" height="50" relative="1" as="geometry">
            <mxPoint x="450" y="293" as="sourcePoint" />
            <mxPoint x="500" y="243" as="targetPoint" />
          </mxGeometry>
        </mxCell>
        <mxCell id="U18qOftS7bFx01JsZrya-6" value="" style="image;html=1;image=img/lib/clip_art/networking/Firewall_02_128x128.png" vertex="1" parent="1">
          <mxGeometry x="450" y="153" width="40" height="50" as="geometry" />
        </mxCell>
        <mxCell id="U18qOftS7bFx01JsZrya-10" value="" style="endArrow=none;html=1;rounded=0;entryX=0;entryY=0.7;entryDx=0;entryDy=0;entryPerimeter=0;exitX=0.7;exitY=0.676;exitDx=0;exitDy=0;exitPerimeter=0;" edge="1" parent="1" source="U18qOftS7bFx01JsZrya-3" target="U18qOftS7bFx01JsZrya-7">
          <mxGeometry width="50" height="50" relative="1" as="geometry">
            <mxPoint x="500" y="117" as="sourcePoint" />
            <mxPoint x="500" y="243" as="targetPoint" />
          </mxGeometry>
        </mxCell>
        <mxCell id="U18qOftS7bFx01JsZrya-12" value="" style="endArrow=none;html=1;rounded=0;" edge="1" parent="1" source="U18qOftS7bFx01JsZrya-4" target="U18qOftS7bFx01JsZrya-1">
          <mxGeometry width="50" height="50" relative="1" as="geometry">
            <mxPoint x="450" y="293" as="sourcePoint" />
            <mxPoint x="500" y="243" as="targetPoint" />
          </mxGeometry>
        </mxCell>
        <mxCell id="U18qOftS7bFx01JsZrya-13" value="" style="shape=mxgraph.cisco.computers_and_peripherals.laptop;html=1;pointerEvents=1;dashed=0;fillColor=#036897;strokeColor=#ffffff;strokeWidth=2;verticalLabelPosition=bottom;verticalAlign=top;align=center;outlineConnect=0;" vertex="1" parent="1">
          <mxGeometry x="130" y="310" width="70" height="50" as="geometry" />
        </mxCell>
        <mxCell id="U18qOftS7bFx01JsZrya-14" value="" style="shape=mxgraph.cisco.computers_and_peripherals.laptop;html=1;pointerEvents=1;dashed=0;fillColor=#036897;strokeColor=#ffffff;strokeWidth=2;verticalLabelPosition=bottom;verticalAlign=top;align=center;outlineConnect=0;" vertex="1" parent="1">
          <mxGeometry x="130" y="250" width="70" height="50" as="geometry" />
        </mxCell>
        <mxCell id="U18qOftS7bFx01JsZrya-15" value="" style="shape=mxgraph.cisco.computers_and_peripherals.laptop;html=1;pointerEvents=1;dashed=0;fillColor=#036897;strokeColor=#ffffff;strokeWidth=2;verticalLabelPosition=bottom;verticalAlign=top;align=center;outlineConnect=0;" vertex="1" parent="1">
          <mxGeometry x="530" y="10" width="70" height="50" as="geometry" />
        </mxCell>
        <mxCell id="U18qOftS7bFx01JsZrya-16" value="" style="shape=mxgraph.cisco.computers_and_peripherals.laptop;html=1;pointerEvents=1;dashed=0;fillColor=#036897;strokeColor=#ffffff;strokeWidth=2;verticalLabelPosition=bottom;verticalAlign=top;align=center;outlineConnect=0;" vertex="1" parent="1">
          <mxGeometry x="330" y="10" width="70" height="50" as="geometry" />
        </mxCell>
        <mxCell id="U18qOftS7bFx01JsZrya-17" value="" style="shape=mxgraph.cisco.computers_and_peripherals.laptop;html=1;pointerEvents=1;dashed=0;fillColor=#036897;strokeColor=#ffffff;strokeWidth=2;verticalLabelPosition=bottom;verticalAlign=top;align=center;outlineConnect=0;" vertex="1" parent="1">
          <mxGeometry x="560" y="453" width="70" height="50" as="geometry" />
        </mxCell>
        <mxCell id="U18qOftS7bFx01JsZrya-18" value="" style="shape=mxgraph.cisco.computers_and_peripherals.laptop;html=1;pointerEvents=1;dashed=0;fillColor=#036897;strokeColor=#ffffff;strokeWidth=2;verticalLabelPosition=bottom;verticalAlign=top;align=center;outlineConnect=0;" vertex="1" parent="1">
          <mxGeometry x="130" y="180" width="70" height="50" as="geometry" />
        </mxCell>
        <mxCell id="U18qOftS7bFx01JsZrya-19" value="" style="shape=mxgraph.cisco.computers_and_peripherals.laptop;html=1;pointerEvents=1;dashed=0;fillColor=#036897;strokeColor=#ffffff;strokeWidth=2;verticalLabelPosition=bottom;verticalAlign=top;align=center;outlineConnect=0;" vertex="1" parent="1">
          <mxGeometry x="560" y="333" width="70" height="50" as="geometry" />
        </mxCell>
        <mxCell id="U18qOftS7bFx01JsZrya-20" value="" style="shape=mxgraph.cisco.computers_and_peripherals.laptop;html=1;pointerEvents=1;dashed=0;fillColor=#036897;strokeColor=#ffffff;strokeWidth=2;verticalLabelPosition=bottom;verticalAlign=top;align=center;outlineConnect=0;" vertex="1" parent="1">
          <mxGeometry x="560" y="393" width="70" height="50" as="geometry" />
        </mxCell>
        <mxCell id="U18qOftS7bFx01JsZrya-21" value="" style="endArrow=none;html=1;rounded=0;" edge="1" parent="1" source="U18qOftS7bFx01JsZrya-3" target="U18qOftS7bFx01JsZrya-16">
          <mxGeometry width="50" height="50" relative="1" as="geometry">
            <mxPoint x="370" y="180" as="sourcePoint" />
            <mxPoint x="420" y="130" as="targetPoint" />
          </mxGeometry>
        </mxCell>
        <mxCell id="U18qOftS7bFx01JsZrya-22" value="" style="shape=mxgraph.cisco.computers_and_peripherals.laptop;html=1;pointerEvents=1;dashed=0;fillColor=#036897;strokeColor=#ffffff;strokeWidth=2;verticalLabelPosition=bottom;verticalAlign=top;align=center;outlineConnect=0;" vertex="1" parent="1">
          <mxGeometry x="435" y="9" width="70" height="50" as="geometry" />
        </mxCell>
        <mxCell id="U18qOftS7bFx01JsZrya-23" value="" style="endArrow=none;html=1;rounded=0;" edge="1" parent="1" target="U18qOftS7bFx01JsZrya-22">
          <mxGeometry width="50" height="50" relative="1" as="geometry">
            <mxPoint x="470" y="95" as="sourcePoint" />
            <mxPoint x="410" y="66" as="targetPoint" />
          </mxGeometry>
        </mxCell>
        <mxCell id="U18qOftS7bFx01JsZrya-24" value="" style="endArrow=none;html=1;rounded=0;" edge="1" parent="1" target="U18qOftS7bFx01JsZrya-15">
          <mxGeometry width="50" height="50" relative="1" as="geometry">
            <mxPoint x="470" y="90" as="sourcePoint" />
            <mxPoint x="420" y="76" as="targetPoint" />
          </mxGeometry>
        </mxCell>
        <mxCell id="U18qOftS7bFx01JsZrya-25" value="" style="endArrow=none;html=1;rounded=0;entryX=0.95;entryY=0.5;entryDx=0;entryDy=0;entryPerimeter=0;" edge="1" parent="1" target="U18qOftS7bFx01JsZrya-18">
          <mxGeometry width="50" height="50" relative="1" as="geometry">
            <mxPoint x="280" y="260" as="sourcePoint" />
            <mxPoint x="420" y="260" as="targetPoint" />
          </mxGeometry>
        </mxCell>
        <mxCell id="U18qOftS7bFx01JsZrya-26" value="" style="endArrow=none;html=1;rounded=0;" edge="1" parent="1" source="U18qOftS7bFx01JsZrya-14">
          <mxGeometry width="50" height="50" relative="1" as="geometry">
            <mxPoint x="370" y="310" as="sourcePoint" />
            <mxPoint x="270" y="275" as="targetPoint" />
          </mxGeometry>
        </mxCell>
        <mxCell id="U18qOftS7bFx01JsZrya-27" value="" style="endArrow=none;html=1;rounded=0;exitX=0.95;exitY=0.5;exitDx=0;exitDy=0;exitPerimeter=0;entryX=0;entryY=1;entryDx=0;entryDy=0;" edge="1" parent="1" source="U18qOftS7bFx01JsZrya-13" target="U18qOftS7bFx01JsZrya-5">
          <mxGeometry width="50" height="50" relative="1" as="geometry">
            <mxPoint x="370" y="310" as="sourcePoint" />
            <mxPoint x="420" y="260" as="targetPoint" />
          </mxGeometry>
        </mxCell>
        <mxCell id="U18qOftS7bFx01JsZrya-28" value="" style="endArrow=none;html=1;rounded=0;" edge="1" parent="1" source="U18qOftS7bFx01JsZrya-19" target="U18qOftS7bFx01JsZrya-4">
          <mxGeometry width="50" height="50" relative="1" as="geometry">
            <mxPoint x="370" y="310" as="sourcePoint" />
            <mxPoint x="420" y="260" as="targetPoint" />
          </mxGeometry>
        </mxCell>
        <mxCell id="U18qOftS7bFx01JsZrya-29" value="" style="endArrow=none;html=1;rounded=0;" edge="1" parent="1" source="U18qOftS7bFx01JsZrya-20" target="U18qOftS7bFx01JsZrya-4">
          <mxGeometry width="50" height="50" relative="1" as="geometry">
            <mxPoint x="370" y="310" as="sourcePoint" />
            <mxPoint x="420" y="260" as="targetPoint" />
          </mxGeometry>
        </mxCell>
        <mxCell id="U18qOftS7bFx01JsZrya-30" value="" style="endArrow=none;html=1;rounded=0;" edge="1" parent="1" source="U18qOftS7bFx01JsZrya-4" target="U18qOftS7bFx01JsZrya-17">
          <mxGeometry width="50" height="50" relative="1" as="geometry">
            <mxPoint x="370" y="310" as="sourcePoint" />
            <mxPoint x="420" y="260" as="targetPoint" />
          </mxGeometry>
        </mxCell>
        <mxCell id="U18qOftS7bFx01JsZrya-31" value="" style="outlineConnect=0;dashed=0;verticalLabelPosition=bottom;verticalAlign=top;align=center;html=1;shape=mxgraph.aws3.internet_gateway;fillColor=#F58536;gradientColor=none;" vertex="1" parent="1">
          <mxGeometry x="250" y="131" width="60" height="59" as="geometry" />
        </mxCell>
      </root>
    </mxGraphModel>
  </diagram>
</mxfile>
